<?xml version="1.0" encoding="UTF-8" standalone="no"?>
<svg width="24px" height="24px" viewBox="0 0 24 24" version="1.1" xmlns="http://www.w3.org/2000/svg" xmlns:xlink="http://www.w3.org/1999/xlink">
    <!-- Generator: Sketch 50.2 (55047) - http://www.bohemiancoding.com/sketch -->
    <title>时间_slice</title>
    <desc>Created with Sketch.</desc>
    <defs></defs>
    <g id="Page-1" stroke="none" stroke-width="1" fill="none" fill-rule="evenodd">
        <g id="Artboard" transform="translate(-29.000000, -93.000000)">
            <g id="时间" transform="translate(30.000000, 94.000000)">
                <path d="M10.9999518,0 C4.92433327,0 0,4.92593139 0,11.0000161 C0,17.0740686 4.92433327,22 10.9999518,22 C17.0756667,22 22,17.0740686 22,11.0000161 C21.996367,4.92593139 17.0720337,0 10.9999518,0 Z" id="Fill-1" stroke="#9DA4B3" stroke-width="2"></path>
                <path d="M16.4337047,12.8769435 L10.7349141,12.8769435 C10.6909104,12.8769435 10.6669084,12.8446612 10.6229047,12.8412383 C10.6068683,12.8412383 10.5987975,12.859138 10.5789011,12.859138 C10.4388192,12.8555894 10.3346702,12.7588054 10.21073,12.7052006 C10.106581,12.6550186 9.98664118,12.644216 9.90656433,12.5761343 C9.842559,12.5189809 9.83859375,12.429451 9.79048448,12.3576638 C9.70630203,12.2287545 9.58636221,12.1141651 9.58636221,11.960102 C9.58636221,11.9422023 9.61036421,11.9315253 9.61036421,11.9136256 C9.61036421,11.892146 9.58636221,11.8777948 9.58636221,11.8563466 L9.58636221,4.87615489 C9.58636221,4.32465575 10.0346101,3.87703767 10.5829014,3.87703767 C11.1351579,3.87703767 11.5794055,4.32465575 11.5794055,4.87615489 L11.5794055,11.0469662 L16.4337047,11.0469662 C17.0700034,11.0469662 17.5863622,11.4552049 17.5863622,11.9602276 C17.5823619,12.4652504 17.0700034,12.8770377 16.4337047,12.8770377 L16.4337047,12.8769435 Z" id="Path" fill="#9DA4B3"></path>
            </g>
        </g>
    </g>
</svg>