<?xml version="1.0" encoding="UTF-8" standalone="no"?>
<svg width="183px" height="170px" viewBox="0 0 183 170" version="1.1" xmlns="http://www.w3.org/2000/svg" xmlns:xlink="http://www.w3.org/1999/xlink">
    <!-- Generator: Sketch 50.2 (55047) - http://www.bohemiancoding.com/sketch -->
    <title>活动过期_slice</title>
    <desc>Created with Sketch.</desc>
    <defs>
        <polygon id="path-1" points="0.0133902439 0.119113375 182.818689 0.119113375 182.818689 169.544425 0.0133902439 169.544425"></polygon>
    </defs>
    <g id="Page-1" stroke="none" stroke-width="1" fill="none" fill-rule="evenodd">
        <g id="Artboard" transform="translate(-310.000000, 0.000000)">
            <g id="活动过期" transform="translate(310.000000, 0.000000)">
                <g id="Group-4">
                    <mask id="mask-2" fill="white">
                        <use xlink:href="#path-1"></use>
                    </mask>
                    <g id="Clip-2"></g>
                    <path d="M14.3021195,72.3340833 C12.9369841,72.8420424 11.4060329,72.5640347 10.3033463,71.6078502 C9.20132927,70.6516656 8.70187317,69.1682096 9.00002927,67.7350556 C14.8069317,38.9893357 35.0605683,15.3550937 62.464372,5.34883994 C89.8010012,-4.82403878 120.428506,0.0453615042 143.317566,18.2032123 C145.05919,19.5752855 145.36605,22.1076701 144.0027,23.8603758 C142.639127,25.6128568 140.12243,25.9216295 138.380583,24.5497808 C117.671232,8.11476889 89.9552122,3.70684331 65.2180756,12.9147795 C40.4244768,21.9709119 22.1008207,43.3577383 16.8502829,69.3673961 C16.5695341,70.7340798 15.6054366,71.8559911 14.3021195,72.3340833 Z M120.34995,164.314189 C93.0133207,174.487742 62.3858159,169.618566 39.4976488,151.459817 C37.7560244,150.088642 37.4491646,147.556257 38.811622,145.803552 C40.1751951,144.050846 42.6918915,143.742073 44.433739,145.113248 C65.1430902,161.54826 92.8591098,165.956186 117.596246,156.749148 C142.389845,147.692117 160.713501,126.306189 165.964039,100.295633 C166.25617,98.8849352 167.273382,97.7376485 168.634277,97.2867282 C169.994279,96.8351342 171.491085,97.1490717 172.558957,98.1086248 C173.627722,99.0684023 174.1062,100.528953 173.814293,101.940324 C168.004043,130.681553 147.750406,154.31063 120.34995,164.314189 Z" id="Fill-1" fill="#EFEFEF" mask="url(#mask-2)"></path>
                    <path d="M58.522061,59.4568056 C56.8125732,60.0999509 54.8861634,59.4963285 53.8417244,57.9901919 C52.7972854,56.4840552 52.8983817,54.4569349 54.0892207,53.0639774 C64.9966902,40.0867697 81.7902878,33.6964116 98.5028744,36.1621013 C100.692626,36.489288 102.204384,38.5411101 101.879224,40.7445115 C101.554957,42.9472392 99.5158463,44.4690952 97.325872,44.1419085 C83.357839,42.0927811 69.3259793,47.433986 60.2020902,58.2726907 C59.7539634,58.8069235 59.1750585,59.2156262 58.522061,59.4568056 Z M108.226423,131.00627 C100.265477,133.944662 91.6812146,134.749267 83.3176683,133.339468 C81.1339427,132.97186 79.6605695,130.892192 80.0267927,128.694854 C80.3927927,126.497291 82.4589073,125.014958 84.6426329,125.38324 C98.8673122,127.792115 113.298424,122.473591 122.612232,111.391237 C124.041863,109.691977 126.569272,109.481562 128.256889,110.919208 C129.945622,112.357976 130.154733,114.900915 128.725994,116.599052 C123.249607,123.108877 116.185584,128.073716 108.226423,131.00627 Z M170.169468,92.707911 L36.3438,142.055389 C26.3479829,145.722934 15.2880878,140.559807 11.6171524,130.511335 L1.17343171,101.836801 C-2.47228537,91.7788984 2.65974878,80.6498351 12.6457463,76.9560164 L146.470522,27.6085385 C156.446254,23.9286426 167.540963,29.1032225 171.19717,39.1514693 L181.64089,67.827126 C185.297096,77.8753728 180.155466,89.0280151 170.169468,92.707911 Z M15.3996732,84.5210578 C9.56398171,86.6833643 6.56880732,93.1893717 8.70365854,99.0657076 L19.1359976,127.740466 C21.2840159,133.611412 27.7499415,136.625482 33.5898732,134.477997 L167.415541,85.1419714 C173.25458,82.9850543 176.256004,76.4770259 174.122938,70.5973216 L163.679217,41.9225632 C161.530306,36.0516169 155.06438,33.037547 149.224449,35.1848079 L15.3996732,84.5210578 Z" id="Fill-3" fill="#EFEFEF" mask="url(#mask-2)"></path>
                </g>
                <path d="M68.2102183,18.7401486 L71.9362334,22.318452 C72.0498084,22.4331584 72.2081923,22.4672119 72.3676854,22.4331584 L77.387391,21.3662989 C77.5684011,21.323508 77.7573971,21.3909428 77.8718594,21.5388066 C77.9860999,21.6857742 78.0060643,21.8880788 77.9211048,22.0552096 L75.6950787,26.7344261 C75.6291963,26.8789293 75.6378475,27.0460602 75.717705,27.1824981 L78.2729212,31.6791252 C78.3665319,31.8384148 78.3614299,32.0369108 78.2600553,32.1919437 C78.1577934,32.3458564 77.9774487,32.4274055 77.7964385,32.4009693 L72.6970973,31.7131787 C72.5444809,31.6939116 72.3927517,31.7490245 72.2880498,31.8619386 L68.834881,35.7046045 C68.7137639,35.8376819 68.5289826,35.8903304 68.3566236,35.8421627 C68.185152,35.7939949 68.0533872,35.6521801 68.017895,35.4754157 L67.0864467,30.3707548 C67.0560565,30.2184103 66.9537946,30.0907098 66.8133786,30.0268595 L62.123085,27.8931404 C61.9582681,27.8178643 61.8500169,27.6561103 61.8431403,27.473969 C61.8362637,27.2920518 61.9314271,27.1213363 62.0891456,27.0328421 L66.6088548,24.5668775 C66.7501581,24.4907053 66.8437688,24.3488905 66.8592967,24.1887047 L67.4156368,19.0262426 C67.4407032,18.8494781 67.5602675,18.7007182 67.7275245,18.6411246 C67.8938941,18.580859 68.0802282,18.618497 68.2102183,18.7401486 Z M37.4655477,39.9377653 L42.5997156,39.811633 C42.7583213,39.8046879 42.902952,39.7179859 42.9852496,39.581548 L45.7911294,35.2462268 C45.8898421,35.0911939 46.0675249,35.0062842 46.2485351,35.0282398 C46.4295453,35.0501953 46.583049,35.1752074 46.6427203,35.3492834 L48.3463457,40.2476071 C48.4009149,40.3954709 48.5240285,40.5065927 48.6755358,40.5451269 L53.6388975,41.8989766 C54.0133402,42.0136831 54.115602,42.5072344 53.7975032,42.7478491 L49.7094678,45.9018283 C49.5845796,46.0006282 49.5162572,46.1556611 49.5273485,46.3149507 L49.7891034,51.4888387 C49.8004166,51.6734444 49.7059186,51.8475204 49.5455382,51.938479 C49.386267,52.0287655 49.1895071,52.019132 49.0386653,51.913163 L44.8144286,48.9648489 C44.6802237,48.8729941 44.5094175,48.8555193 44.359463,48.9193695 L39.5669075,50.7544486 C39.4005378,50.8158345 39.2142038,50.7781964 39.0833263,50.6583372 C38.9524488,50.5373577 38.8978796,50.3536482 38.9422448,50.1804683 L40.4187202,45.2026119 C40.4646382,45.047803 40.4309206,44.879776 40.3277714,44.755436 L37.10264,40.7174106 C36.9908396,40.5740276 36.9682133,40.3788922 37.0454088,40.2142257 C37.1223825,40.0488871 37.2854248,39.9420219 37.4655477,39.9377653 Z M105.133858,15.4705668 L105.258747,20.6558806 C105.258747,20.8158423 105.349695,20.9646023 105.485675,21.0452552 L109.779121,23.8902887 C110.119846,24.1082758 110.051302,24.6123568 109.677081,24.7505871 L104.827073,26.4711838 C104.683329,26.5236082 104.573304,26.6434675 104.5316,26.7922274 L103.191992,31.8050335 C103.146074,31.982694 103.003218,32.119356 102.824647,32.1560979 C102.646077,32.1928398 102.462405,32.1227166 102.351492,31.9766451 L99.2277352,27.8476611 C99.1299099,27.7217529 98.9772934,27.6525257 98.8186877,27.6639516 L93.6967202,27.9159921 C93.5139354,27.9274179 93.3406892,27.8319786 93.251515,27.6708967 C93.162119,27.5098148 93.1716576,27.3104227 93.2765814,27.1589744 L96.1958144,22.8917602 C96.2867632,22.7613712 96.3076149,22.5942403 96.2521583,22.4445843 L94.4238666,17.6040619 C94.3570969,17.4344666 94.3908145,17.2417956 94.5112661,17.1062538 C94.6317178,16.970488 94.8171645,16.914479 94.9912981,16.9617506 L99.9209422,18.4531584 C100.074224,18.4995339 100.240594,18.4652564 100.363707,18.3610796 L104.361903,15.1038198 C104.502985,14.9900095 104.696195,14.968278 104.860125,15.0460185 C105.023833,15.1239831 105.129644,15.2877534 105.133858,15.4705668 Z" id="Fill-5" fill="#E5E5E5"></path>
                <path d="M115.634208,151.990851 L116.19009,146.811284 C116.209151,146.655063 116.302685,146.517049 116.440325,146.443322 L120.956313,143.968962 C121.113902,143.880399 121.209209,143.709118 121.202116,143.526598 C121.194358,143.343853 121.087083,143.181564 120.922623,143.106038 L116.23597,140.976713 C116.092345,140.910853 115.990167,140.777335 115.963348,140.620214 L115.032667,135.49864 C114.996982,135.32129 114.865548,135.179005 114.693996,135.130678 C114.521779,135.082351 114.337371,135.135174 114.216132,135.268467 L110.766028,139.12409 C110.661191,139.237378 110.509587,139.293573 110.357317,139.273343 L105.261953,138.583048 C105.080206,138.556749 104.900231,138.638569 104.79894,138.792991 C104.697649,138.948313 104.692329,139.147692 104.785863,139.307509 L107.339197,143.819709 C107.422978,143.959297 107.430957,144.132376 107.361583,144.27983 L105.13739,148.963312 C105.0525,149.130996 105.071561,149.333971 105.186816,149.481426 C105.300963,149.629779 105.489803,149.697438 105.670664,149.65428 L110.69754,148.584111 C110.848258,148.551518 111.004073,148.594675 111.117333,148.698972 L114.84028,152.289357 C114.971937,152.411411 115.15989,152.448275 115.32701,152.386011 C115.494129,152.322624 115.612708,152.169999 115.634208,151.990851 Z M78.6396786,155.891879 L82.6336958,152.623827 C82.7564864,152.527397 82.9167347,152.497501 83.0647926,152.543131 L87.9903778,154.039256 C88.1661411,154.092753 88.3565329,154.039256 88.4795451,153.901467 C88.6032222,153.764577 88.6380203,153.566997 88.5686458,153.394817 L86.7531633,148.526118 C86.6942061,148.378663 86.7114943,148.21008 86.7990435,148.07746 L89.7149864,143.796107 C89.8198238,143.644157 89.8300194,143.444779 89.7400321,143.282489 C89.6509314,143.120873 89.4778278,143.025118 89.2949718,143.036582 L84.1661395,143.30182 C84.0103241,143.306091 83.8613796,143.233263 83.7687326,143.106038 L80.6484343,138.962474 C80.5376125,138.815919 80.3532051,138.746462 80.174782,138.782427 C79.9963589,138.81929 79.8536205,138.956405 79.8086268,139.135554 L78.4692347,144.164969 C78.4284523,144.32119 78.3134193,144.445942 78.1627016,144.49854 L73.3279903,146.224837 C73.1548867,146.282605 73.0285499,146.436354 73.0041691,146.619773 C72.9800099,146.804316 73.0622397,146.985937 73.2147305,147.087761 L77.5272495,149.930083 C77.6405094,150.022242 77.7316049,150.160931 77.7316049,150.321647 L77.8561686,155.524142 C77.8674724,155.92627 78.3331456,156.144755 78.6396786,155.891879 Z M145.888556,130.331436 L142.665193,126.268568 C142.563015,126.14404 142.528439,125.975457 142.575206,125.81991 L144.049579,120.836125 C144.102552,120.658775 144.049579,120.46569 143.914598,120.340039 C143.77873,120.215512 143.584792,120.179323 143.414127,120.249678 L138.625517,122.090838 C138.480119,122.150629 138.313887,122.133096 138.183117,122.045208 L133.961472,119.087125 C133.811641,118.980805 133.615043,118.971139 133.455016,119.061725 C133.295654,119.152086 133.201234,119.327638 133.212538,119.51308 L133.461887,124.715349 C133.469645,124.870896 133.402043,125.021048 133.281026,125.117478 L129.195248,128.282806 C129.050737,128.395195 128.982249,128.581312 129.017712,128.762258 C129.054061,128.944104 129.189264,129.087962 129.365692,129.134491 L134.324967,130.491928 C134.473912,130.536883 134.593377,130.652644 134.642804,130.802796 L136.345027,135.705886 C136.401324,135.882337 136.553593,136.009561 136.734676,136.034287 C136.916424,136.058788 137.095512,135.976294 137.196138,135.820748 L140.009903,131.447236 C140.098117,131.319112 140.241964,131.241788 140.396006,131.240215 L145.52506,131.113665 C145.710354,131.112765 145.878138,131.003973 145.956157,130.833591 C146.033289,130.664108 146.007357,130.462931 145.888556,130.319972 L145.888556,130.331436 Z" id="Fill-6" fill="#E5E5E5"></path>
                <path d="M31.5769034,75.7655246 L37.6024527,75.7655246 C37.2652018,74.866167 36.8829842,74.0342612 36.4333163,73.2698073 L38.1195708,73 C38.4793051,73.8094218 38.8615227,74.7312634 39.221257,75.7655246 L44.6397547,75.7655246 L44.6397547,77.2269807 L38.0970874,77.2269807 C36.6806336,79.362955 35.444047,80.891863 34.3873275,81.8137045 C36.0061318,81.7462527 37.6249361,81.6563169 39.2437404,81.5438972 C39.8283086,80.7569593 40.3679101,79.9025696 40.8625447,79.003212 L42.2340317,79.7226981 C40.0531426,83.8147752 36.8605008,86.6027837 32.6785897,88.1092077 L31.8242207,86.7601713 C34.297394,85.9282655 36.3658661,84.6466809 38.0296372,82.9379015 C36.2759325,83.0503212 34.3873275,83.140257 32.3863056,83.2077088 L32.0265713,81.8137045 C32.1614716,81.7687366 32.2514052,81.7237687 32.3413388,81.6788009 C33.3755749,81.1167024 34.702095,79.6327623 36.3208993,77.2269807 L31.5769034,77.2269807 L31.5769034,75.7655246 Z M39.446091,89.3907923 C37.2427184,91.3244111 34.6796117,92.8083512 31.7567706,93.7976445 L30.8799182,92.4036403 C36.2984159,90.6723769 40.3679101,87.3222698 43.0659172,82.3308351 L44.4374042,83.0728051 C43.3132345,85.0963597 41.9867144,86.8950749 40.480327,88.4239829 C42.0991313,89.8179872 43.4931017,91.2119914 44.6622381,92.6284797 L43.4931017,93.7976445 C42.481349,92.4036403 41.1323454,90.9197002 39.446091,89.3907923 Z M26.7429739,73.5620985 C28.2268779,74.6862955 29.4634645,75.8104925 30.4977006,76.9346895 L29.3960143,78.0364026 C28.4741952,76.9796574 27.2151252,75.8554604 25.6188043,74.6638116 L26.7429739,73.5620985 Z M24,80.1723769 L28.8564129,80.1723769 L28.8564129,90.2002141 C29.6433316,89.5481799 30.4752172,88.7837259 31.3520695,87.9293362 L31.8017374,89.6381156 C30.4302504,90.9421842 28.9688298,92.111349 27.4399591,93.1231263 L26.8104241,91.6841542 C27.1251916,91.391863 27.3050588,91.0770878 27.3050588,90.7173448 L27.3050588,81.7237687 L24,81.7237687 L24,80.1723769 Z M52.4639755,79.8351178 L58.8942259,79.8351178 L58.8942259,76.3051392 C57.185488,76.4625268 55.3643332,76.5524625 53.4307614,76.5524625 L52.9361267,75.0910064 C57.8375064,75.0910064 61.9294839,74.5289079 65.1670925,73.4271949 L65.9540112,74.8211991 C64.3801737,75.3832976 62.5815023,75.8104925 60.5355135,76.1027837 L60.5355135,79.8351178 L67.0107307,79.8351178 L67.0107307,81.3865096 L60.5355135,81.3865096 L60.5355135,84.8715203 L65.594277,84.8715203 L65.594277,93.8875803 L63.9979561,93.8875803 L63.9979561,92.6959315 L55.5666837,92.6959315 L55.5666837,93.9325482 L53.9703628,93.9325482 L53.9703628,84.8715203 L58.8942259,84.8715203 L58.8942259,81.3865096 L52.4639755,81.3865096 L52.4639755,79.8351178 Z M55.5666837,91.1670236 L63.9979561,91.1670236 L63.9979561,86.4004283 L55.5666837,86.4004283 L55.5666837,91.1670236 Z M48.3944813,73.6070664 C49.9008687,74.5963597 51.1824221,75.5856531 52.2166582,76.5749465 L51.1149719,77.6766595 C50.1931528,76.732334 48.9115994,75.7430407 47.2927951,74.6638116 L48.3944813,73.6070664 Z M47.8773633,78.9807281 C49.406234,80.0824411 50.7102708,81.1841542 51.7445069,82.3083512 L50.6203373,83.4325482 C49.6760347,82.375803 48.3944813,81.251606 46.7531937,80.0824411 L47.8773633,78.9807281 Z M50.5304037,84.9614561 L51.9918242,85.5235546 C51.0025549,88.4014989 49.9233521,91.1220557 48.7542156,93.640257 L47.1354113,92.9432548 C48.4394481,90.3351178 49.5861012,87.6820128 50.5304037,84.9614561 Z M70.0459888,74.866167 L78.184977,74.866167 L78.184977,76.4175589 L70.0459888,76.4175589 L70.0459888,74.866167 Z M69.1691364,80.9368308 L79.0393459,80.9368308 L79.0393459,82.5107066 L73.8456822,82.5107066 C72.9463464,85.9282655 72.1594277,88.356531 71.4849259,89.8404711 C73.2611139,89.4807281 75.037302,88.9635974 76.7910066,88.3115632 C76.2064384,87.0974304 75.6443536,85.9957173 75.0597854,84.9614561 L76.4312724,84.2869379 C77.5104752,86.2205567 78.5222279,88.3115632 79.4665304,90.5824411 L78.07256,91.3019272 C77.8477261,90.7173448 77.6228922,90.1777302 77.3980583,89.6605996 C75.0148186,90.5149893 72.406745,91.1895075 69.6188043,91.6841542 L69.2365866,90.1552463 C69.3939704,90.1102784 69.5063873,90.0653105 69.5963209,90.0203426 C70.2708227,89.0985011 71.1701584,86.6027837 72.2943281,82.5107066 L69.1691364,82.5107066 L69.1691364,80.9368308 Z M82.3893715,73.359743 L84.0306592,73.359743 L84.0306592,77.4518201 L88.9545222,77.4518201 C88.9545222,84.8490364 88.8421053,89.4132762 88.6397547,91.1670236 C88.4149208,92.8308351 87.3806847,93.6852248 85.5820133,93.6852248 C85.1773122,93.6852248 84.5028104,93.6627409 83.5135411,93.617773 L83.1538068,92.1788009 C84.0081758,92.2237687 84.7501277,92.2687366 85.3796627,92.2687366 C86.3464486,92.2687366 86.9085335,91.6841542 87.0659172,90.5374732 C87.223301,89.2783726 87.3132345,85.4336188 87.3582013,79.003212 L84.0306592,79.003212 L84.0306592,79.4079229 C83.9856924,86.0631692 82.4118549,90.9197002 79.3091467,94 L78.0275933,92.875803 C80.8829842,90.0877944 82.3444047,85.5910064 82.3893715,79.4079229 L82.3893715,79.003212 L79.6014308,79.003212 L79.6014308,77.4518201 L82.3893715,77.4518201 L82.3893715,73.359743 Z M109.234543,83.4775161 L95.294839,83.4775161 L95.294839,90.2226981 C95.294839,91.1445396 95.7445069,91.6167024 96.666326,91.6167024 L108.177823,91.6167024 C108.672458,91.6167024 109.099642,91.4817987 109.41441,91.2119914 C109.819111,90.8072805 110.088912,89.3683084 110.201329,86.8950749 L111.775166,87.3897216 C111.550332,90.1777302 111.190598,91.8415418 110.695963,92.4261242 C110.201329,92.8982869 109.526827,93.1456103 108.627491,93.1905782 L96.2166582,93.1905782 C94.5079203,93.1905782 93.6760347,92.2912206 93.6760347,90.5374732 L93.6760347,78.6884368 L95.294839,78.6884368 L95.294839,81.9261242 L107.593255,81.9261242 L107.593255,76.0578158 L92.4619315,76.0578158 L92.4619315,74.48394 L109.234543,74.48394 L109.234543,83.4775161 Z M115.754727,73.6070664 C117.283597,74.7987152 118.565151,75.990364 119.599387,77.1595289 L118.43025,78.3511777 C117.508431,77.2044968 116.249361,75.9678801 114.630557,74.6638116 L115.754727,73.6070664 Z M129.42463,93.5053533 C128.143076,93.5053533 126.749106,93.4828694 125.242718,93.4603854 C123.713848,93.4379015 122.477261,93.3029979 121.555442,93.0556745 C120.611139,92.7858672 119.779254,92.2237687 119.059785,91.4143469 C118.745018,91.0321199 118.43025,90.8522484 118.137966,90.8522484 C117.598365,90.8522484 116.676546,91.8865096 115.417476,94 L114.203373,92.9207709 C115.417476,90.987152 116.474195,89.8179872 117.418498,89.4132762 L117.418498,82.6006424 L114.180889,82.6006424 L114.180889,81.0717345 L118.969852,81.0717345 L118.969852,89.503212 C119.149719,89.6381156 119.352069,89.7955032 119.55442,90.0203426 C120.138988,90.6498929 120.74604,91.1220557 121.398058,91.4368308 C122.117527,91.7291221 123.19673,91.8865096 124.5907,91.9314775 C125.827287,91.9539615 127.378641,91.9764454 129.222279,91.9764454 C130.211548,91.9764454 131.200818,91.9539615 132.235054,91.9539615 C133.246806,91.9314775 134.033725,91.9089936 134.573327,91.8640257 L134.168625,93.5053533 L129.42463,93.5053533 Z M128.750128,90.4925054 L125.557486,90.4925054 L125.197752,88.9411135 C126.231988,89.0085653 127.24374,89.0535332 128.188043,89.0535332 C128.817578,89.0535332 129.154829,88.738758 129.154829,88.1316916 L129.154829,78.5760171 L120.656106,78.5760171 L120.656106,76.9796574 L129.154829,76.9796574 L129.154829,73.3372591 L130.796117,73.3372591 L130.796117,76.9796574 L134.123659,76.9796574 L134.123659,78.5760171 L130.796117,78.5760171 L130.796117,88.5139186 C130.796117,89.8179872 130.099131,90.4925054 128.750128,90.4925054 Z M123.106796,80.5770878 C124.545733,82.2408994 125.64742,83.7023555 126.411855,84.9614561 L125.107818,85.8608137 C124.298416,84.5117773 123.219213,83.0278373 121.847726,81.3865096 L123.106796,80.5770878 Z M138.283086,73.359743 L139.856924,73.359743 L139.856924,75.8779443 L144.241185,75.8779443 L144.241185,73.4047109 L145.815023,73.4047109 L145.815023,75.8779443 L147.164027,75.8779443 L147.164027,77.3843683 L145.815023,77.3843683 L145.815023,86.8950749 L147.276444,86.8950749 L147.276444,88.4239829 L136.641799,88.4239829 L136.641799,86.8950749 L138.283086,86.8950749 L138.283086,77.3843683 L136.889116,77.3843683 L136.889116,75.8779443 L138.283086,75.8779443 L138.283086,73.359743 Z M139.856924,86.8950749 L144.241185,86.8950749 L144.241185,84.6916488 L139.856924,84.6916488 L139.856924,86.8950749 Z M144.241185,77.3843683 L139.856924,77.3843683 L139.856924,79.6327623 L144.241185,79.6327623 L144.241185,77.3843683 Z M139.856924,83.2751606 L144.241185,83.2751606 L144.241185,81.0492505 L139.856924,81.0492505 L139.856924,83.2751606 Z M143.836484,89.0085653 C144.893204,90.3576017 145.702606,91.5492505 146.264691,92.5385439 C147.748595,90.4475375 148.490547,87.8169165 148.535514,84.6691649 L148.535514,74.1466809 L156,74.1466809 L156,91.7740899 C156,93.0556745 155.325498,93.7077088 154.021461,93.7077088 L151.638222,93.7077088 L151.188554,92.111349 C152.020439,92.1563169 152.784875,92.2012848 153.504343,92.2012848 C154.088912,92.2012848 154.381196,91.8640257 154.381196,91.1895075 L154.381196,86.5802998 L150.019417,86.5802998 C149.70465,89.5481799 148.805314,91.9989293 147.32141,93.9775161 L146.084824,92.8308351 C146.12979,92.7858672 146.152274,92.7408994 146.174757,92.6959315 L144.983137,93.5503212 C144.398569,92.4036403 143.589167,91.1445396 142.577414,89.7955032 L143.836484,89.0085653 Z M139.452223,88.9860814 L140.75626,89.6156317 C139.901891,91.2344754 138.912621,92.6509636 137.788452,93.8426124 L136.506898,92.9207709 C137.631068,91.8190578 138.620337,90.5149893 139.452223,88.9860814 Z M150.131834,81.0942184 L150.131834,84.5342612 C150.131834,84.7366167 150.109351,84.9164882 150.109351,85.0963597 L154.381196,85.0963597 L154.381196,81.0942184 L150.131834,81.0942184 Z M154.381196,79.6102784 L154.381196,75.6755889 L150.131834,75.6755889 L150.131834,79.6102784 L154.381196,79.6102784 Z" id="该活动已过期" fill="#B8B8B8" transform="translate(90.000000, 83.500000) rotate(-20.000000) translate(-90.000000, -83.500000) "></path>
            </g>
        </g>
    </g>
</svg>